<svg width="285" height="338" viewBox="0 0 285 338" fill="none" xmlns="http://www.w3.org/2000/svg">
<path d="M137.9 156.3L44 62.5C43 61.5 41.3 62.2 41.3 63.6V155.5C41.3 156.4 40.6 157.1 39.7 157.1H17.4C16.5 157.1 15.8 156.4 15.8 155.5V2.29999C15.8 0.899993 17.5 0.200017 18.5 1.20002L155.8 138.3C156.4 138.9 156.4 139.9 155.8 140.5L140.1 156.3C139.5 156.9 138.5 156.9 137.9 156.3Z" fill="black"/>
<path d="M188.2 195H164.5C163.5 195 162.7 194.2 162.7 193.2V171.5C162.7 170.5 163.5 169.7 164.5 169.7H188.5C228.6 169.7 261.3 136.5 259.4 96.4C257.6 59.4 227 29.8 189.5 29.8H164V82.4C164 83.4 163.2 84.2 162.2 84.2H140.5C139.5 84.2 138.7 83.4 138.7 82.4V6.20004C138.7 5.20004 139.5 4.40002 140.5 4.40002H189.6C241.6 4.40002 284 46.2 284.9 98C285.8 151.5 241.8 195 188.2 195Z" fill="black"/>
<path d="M136.4 337.3H85.9C39.7 337.3 1.40001 300.4 1.00001 254.3C0.600011 207.7 38.3 169.7 84.8 169.7H136.5C137.6 169.7 138.5 170.6 138.5 171.7V193.1C138.5 194.2 137.6 195.1 136.5 195.1H84.9C52.4 195.1 26 221.8 26.5 254.4C27 286.5 53.8 311.9 85.8 311.9H136.5C137.6 311.9 138.5 312.8 138.5 313.9V335.3C138.4 336.4 137.5 337.3 136.4 337.3Z" fill="black"/>
<path d="M262.5 337.3H165C163.8 337.3 162.7 336.3 162.7 335V314.1C162.7 312.9 163.7 311.8 165 311.8H262.5C263.7 311.8 264.8 312.8 264.8 314.1V335C264.7 336.2 263.7 337.3 262.5 337.3Z" fill="black"/>
</svg>
