<?xml version="1.0" standalone="no"?>
<!DOCTYPE svg PUBLIC "-//W3C//DTD SVG 20010904//EN"
 "http://www.w3.org/TR/2001/REC-SVG-20010904/DTD/svg10.dtd">
<svg version="1.0" xmlns="http://www.w3.org/2000/svg"
 width="700.000000pt" height="700.000000pt" viewBox="0 0 700.000000 700.000000"
 preserveAspectRatio="xMidYMid meet">
<metadata>
Created by potrace 1.14, written by Peter Selinger 2001-2017
</metadata>
<g transform="translate(0.000000,700.000000) scale(0.100000,-0.100000)"
fill="#000000" stroke="none">
<path d="M888 6980 c-119 -25 -177 -45 -281 -96 -209 -103 -374 -264 -485
-475 -37 -70 -84 -198 -96 -264 -4 -16 -10 -41 -14 -55 -11 -39 -13 -5085 -1
-5155 67 -419 363 -766 754 -884 176 -53 22 -51 2765 -48 2801 3 2570 -2 2749
62 308 111 564 374 665 681 19 57 22 70 41 169 20 107 20 5064 -1 5180 -70
391 -348 718 -720 844 -184 63 -11 59 -2769 59 -2406 1 -2524 0 -2607 -18z"/>
</g>
</svg>
